{"title":"Marvels.Daredevil.S02.2160p.NF.WEBRip.DD5.1.x264-iON","uid":15567063,"size":185196714331,"categoryP":"video","categoryS":"hd___tv_shows","magnet":"?xt=urn:btih:cfeb8590293eb4475c2a0af603731b7e04759f03&amp;dn=Marvels.Daredevil.S02.2160p.NF.WEBRip.DD5.1.x264-iON&amp;tr=udp%3A%2F%2Ftracker.leechers-paradise.org%3A6969&amp;tr=udp%3A%2F%2Fzer0day.ch%3A1337&amp;tr=udp%3A%2F%2Fopen.demonii.com%3A1337&amp;tr=udp%3A%2F%2Ftracker.coppersurfer.tk%3A6969&amp;tr=udp%3A%2F%2Fexodus.desync.com%3A6969","seeders":1,"leechers":3,"uploader":"BreexeOX","files":13,"time":1471216301,"description":"General\r\nFormat                         : Matroska\r\nFormat version                 : Version 4 / Version 2\r\nFile size                      : 9.85 GiB\r\nDuration                       : 48mn 4s\r\nOverall bit rate               : 29.3 Mbps\r\nEncoded date                   : UTC 2016-03-31 00:09:41\r\nWriting application            : mkvmerge v9.0.1 ('Obstacles') 64bit\r\nWriting library                : libebml v1.3.3 + libmatroska v1.4.4\r\n\r\nVideo\r\nID                             : 1\r\nFormat                         : AVC\r\nFormat/Info                    : Advanced Video Codec\r\nFormat profile                 :   \r\nFormat settings, CABAC         : Yes\r\nFormat settings, ReFrames      : 5 frames\r\nCodec ID                       : V_MPEG4/ISO/AVC\r\nDuration                       : 48mn 4s\r\nBit rate                       : 29.0 Mbps\r\nWidth                          : 3 840 pixels\r\nHeight                         : 2 160 pixels\r\nDisplay aspect ratio           : 16:9\r\nFrame rate mode                : Constant\r\nFrame rate                     : 23.976 (24000/1001) fps\r\nColor space                    : YUV\r\nChroma subsampling             : 4:2:0\r\nBit depth                      : 8 bits\r\nScan type                      : Progressive\r\nBits/(Pixel*Frame)             : 0.146\r\nStream size                    : 9.72 GiB (99%)\r\nWriting library                : x264 core 148 r2665 a01e339\r\nDefault                        : Yes\r\nForced                         : No\r\nColor range                    : Limited\r\nColor primaries                : BT.709\r\nTransfer characteristics       : BT.709\r\nMatrix coefficients            : BT.709\r\n\r\nAudio\r\nID                             : 2\r\nFormat                         : AC-3\r\nFormat/Info                    : Audio Coding 3\r\nMode extension                 : CM (complete main)\r\nFormat settings, Endianness    : Big\r\nCodec ID                       : A_AC3\r\nDuration                       : 48mn 4s\r\nBit rate mode                  : Constant\r\nBit rate                       : 384 Kbps\r\nChannel(s)                     : 6 channels\r\nChannel positions              : Front: L C R, Side: L R, LFE\r\nSampling rate                  : 48.0 KHz\r\nFrame rate                     : 31.250 fps (1536 spf)\r\nCompression mode               : Lossy\r\nStream size                    : 132 MiB (1%)\r\nLanguage                       : English\r\nDefault                        : Yes\r\nForced                         : No\r\n\r\nText #1\r\nID                             : 3\r\nFormat                         : UTF-8\r\nCodec ID                       : S_TEXT/UTF8\r\nCodec ID/Info                  : UTF-8 Plain Text\r\nDuration                       : 46mn 34s\r\nBit rate                       : 63 bps\r\nCount of elements              : 614\r\nStream size                    : 21.5 KiB (0%)\r\nLanguage                       : English\r\nDefault                        : Yes\r\nForced                         : No\r\n\r\nText #2\r\nID                             : 4\r\nFormat                         : UTF-8\r\nCodec ID                       : S_TEXT/UTF8\r\nCodec ID/Info                  : UTF-8 Plain Text\r\nDuration                       : 47mn 40s\r\nBit rate                       : 59 bps\r\nCount of elements              : 600\r\nStream size                    : 20.6 KiB (0%)\r\nLanguage                       : French\r\nDefault                        : No\r\nForced                         : No\r\n\r\nText #3\r\nID                             : 5\r\nFormat                         : UTF-8\r\nCodec ID                       : S_TEXT/UTF8\r\nCodec ID/Info                  : UTF-8 Plain Text\r\nDuration                       : 46mn 34s\r\nBit rate                       : 61 bps\r\nCount of elements              : 594\r\nStream size                    : 20.9 KiB (0%)\r\nLanguage                       : German\r\nDefault                        : No\r\nForced                         : No\r\n\r\nText #4\r\nID                             : 6\r\nFormat                         : UTF-8\r\nCodec ID                       : S_TEXT/UTF8\r\nCodec ID/Info                  : UTF-8 Plain Text\r\nDuration                       : 46mn 34s\r\nBit rate                       : 58 bps\r\nCount of elements              : 600\r\nStream size                    : 19.9 KiB (0%)\r\nLanguage                       : Spanish\r\nDefault                        : No\r\nForced                         : No","torrent":{"xt":"urn:btih:cfeb8590293eb4475c2a0af603731b7e04759f03","amp;dn":"Marvels.Daredevil.S02.2160p.NF.WEBRip.DD5.1.x264-iON","amp;tr":["udp%3A%2F%2Ftracker.leechers-paradise.org%3A6969","udp%3A%2F%2Fzer0day.ch%3A1337","udp%3A%2F%2Fopen.demonii.com%3A1337","udp%3A%2F%2Ftracker.coppersurfer.tk%3A6969","udp%3A%2F%2Fexodus.desync.com%3A6969"],"infoHash":"cfeb8590293eb4475c2a0af603731b7e04759f03","infoHashBuffer":{"type":"Buffer","data":[207,235,133,144,41,62,180,71,92,42,10,246,3,115,27,126,4,117,159,3]},"announce":[],"urlList":[]}}